<?xml version="1.0" standalone="no"?>
<!DOCTYPE svg PUBLIC "-//W3C//DTD SVG 20010904//EN"
 "http://www.w3.org/TR/2001/REC-SVG-20010904/DTD/svg10.dtd">
<svg version="1.0" xmlns="http://www.w3.org/2000/svg"
 width="96.000000pt" height="96.000000pt" viewBox="0 0 96.000000 96.000000"
 preserveAspectRatio="xMidYMid meet">

<g transform="translate(0.000000,96.000000) scale(0.100000,-0.100000)"
fill="#000000" stroke="none">
<path d="M361 944 c-253 -68 -410 -331 -346 -579 67 -256 329 -415 580 -350
256 67 415 329 350 578 -67 259 -333 419 -584 351z m208 -204 l107 0 22 -37
c12 -21 31 -52 42 -69 l20 -30 -81 -97 -81 -97 -75 0 -75 0 39 43 c21 24 67
76 102 115 l63 72 -193 0 c-190 0 -192 0 -174 20 9 10 21 18 24 17 13 -4 130
56 135 68 2 6 1 27 -3 45 l-6 33 -60 -72 c-32 -39 -61 -69 -63 -66 -2 2 29 43
69 91 l74 88 3 -62 3 -62 108 0z m-89 -196 c0 -3 -43 -55 -96 -115 l-96 -109
186 0 c102 0 186 -3 186 -6 0 -3 -39 -54 -87 -112 l-88 -107 -3 63 -3 62 -107
0 -107 0 -38 63 c-21 34 -39 65 -40 69 -1 4 33 50 76 103 l78 95 69 0 c39 0
70 -3 70 -6z"/>
<path d="M379 689 l-74 -38 159 -1 c88 0 157 2 155 4 -2 2 -40 19 -85 38 l-81
35 -74 -38z"/>
<path d="M491 726 c3 -3 42 -21 87 -40 l82 -35 0 39 0 40 -87 0 c-47 0 -84 -2
-82 -4z"/>
<path d="M670 677 c0 -27 5 -35 30 -44 17 -6 30 -9 30 -7 0 6 -52 84 -56 84
-2 0 -4 -15 -4 -33z"/>
<path d="M676 589 c4 -24 8 -46 10 -48 4 -4 53 51 54 60 0 4 -8 9 -17 12 -10
2 -26 8 -36 12 -16 7 -17 3 -11 -36z"/>
<path d="M620 585 c-18 -19 -32 -37 -29 -39 2 -2 21 -7 42 -11 36 -7 37 -6 36
21 0 16 -4 37 -7 47 -7 15 -12 13 -42 -18z"/>
<path d="M586 493 c10 -56 18 -58 53 -16 l32 38 -28 6 c-61 14 -64 12 -57 -28z"/>
<path d="M521 471 l-43 -51 57 0 56 0 -7 38 c-12 67 -17 68 -63 13z"/>
<path d="M356 503 c12 -66 17 -68 57 -19 20 24 37 47 37 50 0 3 -23 6 -50 6
l-51 0 7 -37z"/>
<path d="M301 483 l-32 -38 28 -6 c59 -14 63 -12 56 24 -11 59 -17 62 -52 20z"/>
<path d="M271 404 c0 -16 4 -37 7 -47 7 -15 12 -13 42 18 18 19 32 37 29 39
-2 2 -21 7 -41 11 -37 7 -38 6 -37 -21z"/>
<path d="M221 389 c-13 -17 -22 -31 -20 -32 12 -8 62 -27 65 -25 5 6 -8 88
-15 87 -3 0 -17 -14 -30 -30z"/>
<path d="M210 335 c0 -8 50 -85 55 -85 3 0 5 13 5 30 0 23 -7 33 -30 45 -16 9
-30 13 -30 10z"/>
<path d="M321 306 c3 -3 41 -20 86 -40 l81 -34 74 39 73 38 -159 1 c-88 0
-157 -2 -155 -4z"/>
<path d="M280 265 l0 -35 88 0 87 1 -78 34 c-43 19 -82 35 -87 35 -6 0 -10
-16 -10 -35z"/>
<path d="M558 254 l-68 -34 0 -46 c0 -25 4 -43 8 -40 9 6 135 156 130 156 -2
-1 -33 -17 -70 -36z"/>
</g>
</svg>
