<svg xmlns="http://www.w3.org/2000/svg" version="1.0" viewBox="0 0 96 96">
  <path d="M36.1 1.6C10.8 8.4-4.9 34.7 1.5 59.5c6.7 25.6 32.9 41.5 58 35 25.6-6.7 41.5-32.9 35-57.8C87.8 10.8 61.2-5.2 36.1 1.6zM56.9 22h10.7l2.2 3.7c1.2 2.1 3.1 5.2 4.2 6.9l2 3-8.1 9.7-8.1 9.7h-15l3.9-4.3c2.1-2.4 6.7-7.6 10.2-11.5l6.3-7.2H45.9c-19 0-19.2 0-17.4-2 .9-1 2.1-1.8 2.4-1.7 1.3.4 13-5.6 13.5-6.8.2-.6.1-2.7-.3-4.5l-.6-3.3-6 7.2c-3.2 3.9-6.1 6.9-6.3 6.6-.2-.2 2.9-4.3 6.9-9.1l7.4-8.8.3 6.2.3 6.2h10.8zM48 41.6c0 .3-4.3 5.5-9.6 11.5L28.8 64h18.6c10.2 0 18.6.3 18.6.6s-3.9 5.4-8.7 11.2l-8.8 10.7-.3-6.3-.3-6.2H26.5l-3.8-6.3c-2.1-3.4-3.9-6.5-4-6.9-.1-.4 3.3-5 7.6-10.3l7.8-9.5H41c3.9 0 7 .3 7 .6z"/>
  <path d="m37.9 27.1-7.4 3.8 15.9.1c8.8 0 15.7-.2 15.5-.4-.2-.2-4-1.9-8.5-3.8l-8.1-3.5-7.4 3.8zM49.1 23.4c.3.3 4.2 2.1 8.7 4l8.2 3.5V23h-8.7c-4.7 0-8.4.2-8.2.4zM67 28.3c0 2.7.5 3.5 3 4.4 1.7.6 3 .9 3 .7 0-.6-5.2-8.4-5.6-8.4-.2 0-.4 1.5-.4 3.3zM67.6 37.1c.4 2.4.8 4.6 1 4.8.4.4 5.3-5.1 5.4-6 0-.4-.8-.9-1.7-1.2-1-.2-2.6-.8-3.6-1.2-1.6-.7-1.7-.3-1.1 3.6zM62 37.5c-1.8 1.9-3.2 3.7-2.9 3.9.2.2 2.1.7 4.2 1.1 3.6.7 3.7.6 3.6-2.1 0-1.6-.4-3.7-.7-4.7-.7-1.5-1.2-1.3-4.2 1.8zM58.6 46.7c1 5.6 1.8 5.8 5.3 1.6l3.2-3.8-2.8-.6c-6.1-1.4-6.4-1.2-5.7 2.8zM52.1 48.9 47.8 54h11.3l-.7-3.8c-1.2-6.7-1.7-6.8-6.3-1.3zM35.6 45.7c1.2 6.6 1.7 6.8 5.7 1.9 2-2.4 3.7-4.7 3.7-5 0-.3-2.3-.6-5-.6h-5.1l.7 3.7zM30.1 47.7l-3.2 3.8 2.8.6c5.9 1.4 6.3 1.2 5.6-2.4-1.1-5.9-1.7-6.2-5.2-2zM27.1 55.6c0 1.6.4 3.7.7 4.7.7 1.5 1.2 1.3 4.2-1.8 1.8-1.9 3.2-3.7 2.9-3.9-.2-.2-2.1-.7-4.1-1.1-3.7-.7-3.8-.6-3.7 2.1zM22.1 57.1c-1.3 1.7-2.2 3.1-2 3.2 1.2.8 6.2 2.7 6.5 2.5.5-.6-.8-8.8-1.5-8.7-.3 0-1.7 1.4-3 3zM21 62.5c0 .8 5 8.5 5.5 8.5.3 0 .5-1.3.5-3 0-2.3-.7-3.3-3-4.5-1.6-.9-3-1.3-3-1zM32.1 65.4c.3.3 4.1 2 8.6 4l8.1 3.4 7.4-3.9 7.3-3.8-15.9-.1c-8.8 0-15.7.2-15.5.4zM28 69.5V73h8.8l8.7-.1-7.8-3.4C33.4 67.6 29.5 66 29 66c-.6 0-1 1.6-1 3.5zM55.8 70.6 49 74v4.6c0 2.5.4 4.3.8 4 .9-.6 13.5-15.6 13-15.6-.2.1-3.3 1.7-7 3.6z"/>
</svg>
